<?xml version="1.0" encoding="utf-8"?>
<!DOCTYPE svg PUBLIC "-//W3C//DTD SVG 1.1//EN" "http://www.w3.org/Graphics/SVG/1.1/DTD/svg11.dtd">
<svg version="1.1" xmlns="http://www.w3.org/2000/svg" xmlns:xlink="http://www.w3.org/1999/xlink" x="0px" y="0px" viewBox="0 0 1000 1000" enable-background="new 0 0 1000 1000" xml:space="preserve">
<g><path fill="#334155" d="M988.7,784.7V440.9c0.8-2.8,1.3-5.7,1.3-8.7c0-16.6-13.5-30.1-30-30.1s-30,13.5-30,30.1c0,0.8,0,1.5,0.1,2.3v357.9h0c0,0.4,0,0.7,0,1.1c0,75.7-61.4,137.2-137.2,137.2c-3.7,0-7.3,0.1-10.8,0.4l-565.2,0c-3.5-0.3-7.1-0.4-10.8-0.4c-75.8,0-137.2-61.4-137.2-137.2c0-2-0.1-4-0.1-6V212.6c0.1-2,0.1-4,0.1-6c0-75.7,61.4-137.2,137.2-137.2c1.6,0,3.1,0,4.6-0.1h352.5c1.7,0.3,3.5,0.5,5.4,0.5c16.6,0,30-13.5,30-30c0-16.3-12.9-29.5-29-30v0h-1c0,0,0,0,0,0c0,0,0,0,0,0H210.2v0c-1.4,0-2.8,0-4.2,0c-108.2,0-196,87.7-196,196c0,1.9,0,3.7,0.1,5.4H10v581.5h0c0,0.6,0,1.1,0,1.7c0,108.2,87.7,196,196,196c0.6,0,1.1,0,1.6,0v0h579.3v-0.1c1.9,0,3.9,0.1,5.9,0.1c108.2,0,196-87.7,196-196C988.8,791,988.8,787.8,988.7,784.7L988.7,784.7z M478.8,362L303.6,537.1h0v99.6h0v58.7h159.7v0l0,0l317.2-317.2l0,0l171.2-171.2c22.8-20.7,37.2-50.5,37.2-83.7c0-62.4-50.6-112.9-112.9-112.9c-31.3,0-59.7,12.7-80.1,33.3c-1.4,1.4-2.4,2.8-3.1,4.3L478.8,362L478.8,362z M438.9,636.7h-76.6v-75.2l3.3-3.3l75.9,75.9L438.9,636.7z M836.7,87.2c0.8-0.3,1.5-0.7,2-1.2c9.3-9.1,23.5-13.3,37.5-13.3c28.4,0,51.4,23,51.4,51.4c0,13.9-4.2,27.8-13.2,37c-0.2,0.3-0.5,0.5-0.7,0.9l-9.8,9.8l-75.9-75.9L836.7,87.2z M786.5,137.3l75.9,75.9L593.5,482.2L483.1,592.6l-75.9-75.9L517.9,406L786.5,137.3z"/></g>
</svg>